<?xml version="1.0" encoding="UTF-8" standalone="no"?> <svg width="64" height="64" viewBox="0 0 64 64" fill="none" xmlns="http://www.w3.org/2000/svg">
<path d="M32 2.5C26.3003 2.50794 20.8363 4.77566 16.806 8.80597C12.7757 12.8363 10.5079 18.3003 10.5 24C10.5 35.44 30 59.9 30.83 60.94C30.9706 61.1152 31.1487 61.2566 31.3512 61.3537C31.5537 61.4509 31.7754 61.5013 32 61.5013C32.2246 61.5013 32.4463 61.4509 32.6488 61.3537C32.8513 61.2566 33.0294 61.1152 33.17 60.94C34 59.9 53.5 35.44 53.5 24C53.4921 18.3003 51.2243 12.8363 47.194 8.80597C43.1637 4.77566 37.6997 2.50794 32 2.5V2.5ZM32 57.56C27.76 52.07 13.5 32.9 13.5 24C13.5 19.0935 15.4491 14.3879 18.9185 10.9185C22.3879 7.4491 27.0935 5.5 32 5.5C36.9065 5.5 41.6121 7.4491 45.0815 10.9185C48.5509 14.3879 50.5 19.0935 50.5 24C50.5 32.9 36.24 52.07 32 57.56Z" fill="black"/>
<path d="M32 11.21C29.4703 11.21 26.9975 11.9601 24.8942 13.3655C22.7909 14.7708 21.1516 16.7684 20.1835 19.1054C19.2155 21.4425 18.9622 24.0141 19.4557 26.4952C19.9492 28.9762 21.1674 31.2551 22.9561 33.0439C24.7448 34.8326 27.0237 36.0507 29.5048 36.5442C31.9858 37.0377 34.5574 36.7844 36.8945 35.8164C39.2316 34.8483 41.2291 33.209 42.6345 31.1057C44.0398 29.0024 44.79 26.5296 44.79 24C44.7847 20.6095 43.4355 17.3594 41.038 14.9619C38.6406 12.5645 35.3905 11.2153 32 11.21ZM32 33.79C30.0637 33.79 28.1709 33.2158 26.5609 32.14C24.951 31.0643 23.6962 29.5353 22.9552 27.7464C22.2142 25.9575 22.0203 23.9891 22.3981 22.09C22.7758 20.191 23.7082 18.4465 25.0774 17.0774C26.4465 15.7082 28.191 14.7758 30.09 14.3981C31.9891 14.0203 33.9575 14.2142 35.7464 14.9552C37.5353 15.6962 39.0643 16.951 40.1401 18.5609C41.2158 20.1709 41.79 22.0637 41.79 24C41.7873 26.5956 40.755 29.0842 38.9196 30.9196C37.0842 32.755 34.5956 33.7873 32 33.79V33.79Z" fill="black"/>
</svg>
